<?xml version="1.0" standalone="no"?>
<!DOCTYPE svg PUBLIC "-//W3C//DTD SVG 20010904//EN"
 "http://www.w3.org/TR/2001/REC-SVG-20010904/DTD/svg10.dtd">
<svg version="1.0" xmlns="http://www.w3.org/2000/svg"
 width="600.000000pt" height="600.000000pt" viewBox="0 0 600.000000 600.000000"
 preserveAspectRatio="xMidYMid meet">
<g transform="translate(0.000000,600.000000) scale(0.100000,-0.100000)"
fill="#000000" stroke="none">
<path d="M2552 5132 c-231 -2 -255 -4 -285 -22 -36 -23 -37 -24 -6 -51 28 -24
42 -27 155 -32 103 -5 149 -20 96 -32 -17 -3 -48 -17 -67 -31 -20 -13 -34 -20
-30 -14 3 6 0 7 -9 4 -9 -3 -16 -9 -16 -13 0 -4 -27 -20 -60 -35 -33 -16 -60
-32 -60 -36 0 -4 -11 -11 -25 -14 -14 -4 -40 -20 -57 -36 -17 -17 -36 -30 -43
-30 -6 0 -21 -9 -33 -20 -12 -12 -22 -18 -22 -14 0 4 -13 -7 -29 -24 -16 -16
-32 -28 -35 -25 -3 3 -8 -2 -12 -11 -3 -9 -11 -16 -18 -16 -6 0 -25 -14 -43
-30 -18 -17 -37 -30 -42 -30 -6 0 -11 -7 -11 -15 0 -8 -5 -15 -11 -15 -20 0
-230 -220 -223 -233 4 -7 4 -9 -1 -5 -7 7 -65 -47 -65 -61 0 -3 -15 -22 -33
-41 -17 -19 -48 -58 -67 -85 -19 -28 -40 -56 -47 -63 -7 -7 -13 -19 -13 -27 0
-7 -7 -15 -15 -19 -8 -3 -15 -13 -15 -23 -1 -22 -25 -55 -33 -46 -4 3 -7 -1
-7 -9 0 -8 -10 -28 -22 -44 -13 -15 -16 -24 -8 -19 11 6 11 4 -1 -11 -10 -10
-26 -37 -37 -59 -49 -99 -84 -174 -83 -180 1 -3 -6 -20 -16 -38 -9 -17 -18
-34 -18 -37 -1 -3 -7 -18 -13 -33 -7 -16 -12 -32 -12 -37 0 -5 -7 -24 -14 -42
-27 -60 -58 -177 -82 -303 -8 -44 -13 -65 -24 -115 -26 -110 -23 -554 4 -685
3 -11 10 -49 16 -85 13 -76 39 -171 50 -185 5 -6 14 -33 21 -60 6 -28 16 -54
20 -59 5 -6 9 -16 9 -23 0 -18 93 -210 124 -256 14 -21 26 -42 26 -48 0 -6 5
-7 10 -4 6 3 10 -2 10 -13 0 -10 9 -27 20 -37 11 -10 18 -21 15 -24 -2 -4 7
-15 21 -25 13 -11 24 -24 24 -30 1 -6 21 -33 46 -61 25 -27 53 -60 61 -72 8
-13 19 -21 23 -18 5 3 11 -4 15 -15 4 -11 20 -27 36 -35 16 -9 29 -18 29 -21
0 -3 -6 -2 -12 2 -9 5 -9 2 1 -9 7 -9 19 -17 25 -17 7 0 29 -18 51 -40 21 -21
42 -37 46 -34 4 2 15 -6 23 -18 9 -12 16 -18 16 -13 0 6 5 2 11 -8 5 -9 16
-17 24 -17 7 0 15 -3 17 -7 4 -10 76 -52 101 -60 9 -3 17 -10 17 -15 0 -5 4
-6 10 -3 5 3 10 1 10 -5 0 -6 4 -8 10 -5 5 3 10 2 10 -3 0 -7 77 -44 100 -47
3 0 20 -9 38 -18 17 -10 32 -15 32 -12 0 3 10 1 21 -6 24 -12 182 -59 215 -63
11 -1 25 -5 30 -9 42 -25 533 -27 574 -2 6 4 52 14 90 20 8 1 22 5 30 8 8 3
53 16 100 28 47 12 109 33 138 46 29 13 57 23 63 23 15 0 83 32 90 43 3 5 9 8
13 8 23 -2 155 65 242 123 16 11 54 35 84 55 30 19 57 38 60 41 3 4 26 19 52
34 25 15 71 50 101 79 62 58 124 110 138 115 5 2 7 8 3 13 -3 5 0 9 6 9 9 0
90 75 90 84 0 2 21 26 48 54 26 28 63 70 82 93 19 24 43 51 53 61 9 10 14 18
10 18 -3 0 3 8 13 17 11 10 37 44 57 75 21 31 44 64 53 72 8 9 12 21 8 27 -4
7 -3 9 3 6 6 -4 14 0 17 9 4 10 2 13 -7 8 -6 -4 2 7 20 25 18 18 30 38 26 47
-3 8 0 14 6 14 6 0 11 5 11 11 0 6 7 17 16 26 8 9 13 22 10 29 -3 8 -1 14 4
14 5 0 12 11 16 25 3 14 11 25 16 25 6 0 7 7 4 16 -3 8 -2 12 4 9 9 -6 14 8
11 28 0 4 3 7 7 7 5 0 9 6 9 13 0 6 9 32 20 57 34 74 53 121 57 144 2 11 15
55 29 96 27 79 64 244 77 345 5 33 11 80 15 105 3 25 8 151 10 280 3 234 -10
394 -43 501 -6 19 -15 59 -21 89 -17 89 -45 174 -63 195 -4 5 -8 21 -8 35 0
14 -7 35 -15 46 -8 12 -11 24 -8 28 3 3 1 6 -5 6 -7 0 -12 5 -12 11 0 15 -63
143 -72 147 -4 2 -8 8 -8 13 0 5 -16 31 -36 59 -20 27 -33 50 -29 50 4 0 -9
19 -30 43 -20 23 -55 64 -78 91 -58 68 -109 116 -125 116 -7 0 -11 4 -7 9 3 5
-4 12 -15 16 -11 3 -25 15 -30 26 -6 10 -17 19 -24 19 -8 0 -20 7 -27 16 -8 9
-33 25 -56 35 -24 10 -43 22 -43 27 0 5 -20 15 -45 22 -24 7 -42 17 -39 21 3
5 2 8 -3 7 -9 -3 -90 20 -115 33 -9 4 -65 11 -125 14 -142 8 -150 10 -157 40
-4 16 -13 25 -26 25 -11 0 -20 4 -20 8 0 8 -600 10 -1158 4z m1188 -49 c0 -8
-15 -13 -41 -13 -88 0 -260 -78 -390 -177 -411 -312 -805 -917 -1060 -1626
-179 -499 -289 -1044 -289 -1436 0 -539 178 -828 500 -809 108 6 191 46 279
135 202 205 301 558 301 1082 0 250 -18 468 -65 786 -49 331 -58 464 -52 725
6 247 22 363 77 550 111 374 346 623 660 701 111 28 297 23 405 -11 186 -58
385 -202 519 -374 249 -321 376 -733 376 -1219 0 -693 -253 -1303 -739 -1787
-211 -209 -423 -362 -676 -486 -469 -228 -901 -272 -1320 -133 -622 207 -1049
741 -1150 1440 -19 135 -20 437 -1 579 60 446 251 884 540 1240 93 115 267
290 370 374 207 168 471 320 664 382 51 16 92 32 92 35 0 7 -95 14 -332 25
-123 5 -149 10 -134 25 3 2 333 4 735 4 580 0 731 -2 731 -12z m-652 -475 c-7
-12 -16 -25 -19 -28 -3 -3 -11 -21 -19 -40 -7 -19 -23 -58 -36 -86 -12 -29
-26 -68 -29 -88 -4 -20 -10 -36 -14 -36 -4 0 -8 -6 -8 -12 -1 -7 -10 -47 -21
-89 -11 -41 -22 -88 -25 -105 -3 -16 -11 -60 -18 -99 -21 -112 -16 -730 6
-765 2 -3 6 -30 9 -60 2 -30 16 -134 30 -230 44 -306 58 -478 58 -725 0 -159
-16 -417 -27 -436 -3 -3 -7 -31 -11 -60 -3 -30 -12 -75 -19 -101 -7 -25 -11
-49 -8 -52 4 -3 2 -6 -4 -6 -6 0 -14 -17 -18 -37 -9 -47 -73 -202 -91 -220 -8
-8 -14 -20 -14 -26 0 -7 -9 -20 -20 -30 -11 -9 -20 -22 -20 -29 0 -7 -16 -26
-35 -42 -19 -16 -32 -33 -29 -37 3 -5 -2 -9 -10 -9 -9 0 -16 -4 -16 -9 0 -5
-13 -14 -30 -21 -16 -7 -27 -16 -24 -21 3 -5 0 -10 -5 -10 -15 -2 -18 -3 -80
-22 -30 -9 -73 -17 -96 -17 -57 0 -149 18 -153 30 -2 6 -8 10 -13 10 -6 0 -7
-5 -3 -11 4 -7 1 -10 -7 -7 -8 3 -13 11 -12 17 2 6 -1 11 -5 11 -5 0 -18 9
-30 20 -12 11 -24 20 -27 20 -11 -1 -54 57 -47 64 4 4 0 6 -8 4 -8 -2 -14 3
-13 10 2 6 -2 12 -7 12 -6 0 -10 7 -10 15 0 8 -4 15 -8 15 -4 0 -14 20 -21 45
-7 25 -17 45 -23 45 -5 0 -7 4 -4 9 3 4 -3 38 -14 74 -32 115 -43 242 -37 459
3 112 10 230 16 263 6 33 17 107 25 165 22 147 25 163 52 270 14 52 22 100 20
107 -3 7 -2 13 3 13 4 0 21 53 37 118 16 64 32 119 36 120 5 2 5 8 2 13 -3 6
-1 15 5 22 5 7 12 24 15 37 12 53 35 131 49 162 30 67 46 116 40 122 -4 3 -1
6 6 6 7 0 10 4 6 10 -3 5 -2 17 3 27 43 86 82 183 75 183 -3 0 1 8 9 18 8 9
22 37 32 62 19 49 78 172 86 180 13 13 30 51 21 46 -7 -4 -8 -1 -5 8 3 9 10
16 14 16 5 0 14 16 20 35 7 21 16 32 22 29 7 -4 8 -2 4 5 -4 6 0 18 8 27 9 9
14 20 11 25 -4 5 -2 9 3 9 5 0 15 12 22 28 8 15 23 37 33 49 11 12 16 27 12
34 -5 8 -4 10 3 5 7 -4 12 -1 12 7 0 8 7 20 15 27 8 7 13 15 10 19 -2 4 5 15
16 24 11 10 17 23 13 29 -4 6 -3 8 2 5 6 -3 16 3 23 15 7 11 8 17 2 14 -7 -4
-8 -1 -5 8 3 9 10 14 15 11 4 -3 17 12 28 34 12 22 25 43 31 46 6 4 7 12 4 18
-4 7 -4 9 1 5 8 -8 45 28 45 44 0 5 16 24 35 44 19 19 35 42 35 50 0 10 6 14
14 11 11 -4 13 -1 9 10 -4 11 -2 14 5 9 11 -6 16 5 13 26 0 4 7 4 17 1 9 -3
14 -3 10 1 -7 8 52 69 60 62 2 -2 -3 -15 -10 -28z"/>
<path d="M3601 4895 c-277 -78 -489 -364 -570 -770 -57 -285 -54 -588 9 -1035
57 -403 64 -503 64 -840 1 -347 -10 -455 -64 -664 -52 -203 -124 -347 -232
-461 -33 -36 -57 -65 -54 -65 16 0 131 86 192 142 247 232 475 646 744 1353
167 440 288 880 347 1266 22 148 26 208 27 399 0 198 -2 236 -22 319 -40 173
-112 285 -215 337 -62 32 -153 39 -226 19z m175 -36 c25 -6 51 -21 59 -32 8
-12 15 -18 15 -13 0 15 75 -71 92 -105 31 -64 58 -137 62 -170 2 -19 10 -74
16 -124 9 -62 11 -144 6 -265 -10 -228 -14 -262 -63 -520 -14 -74 -26 -143
-26 -152 -1 -10 -4 -18 -8 -18 -4 0 -6 -8 -5 -17 2 -10 0 -25 -5 -33 -6 -13
-44 -156 -52 -200 -6 -30 -95 -310 -141 -445 -2 -5 -4 -14 -6 -20 -1 -5 -6
-16 -12 -22 -6 -7 -7 -13 -4 -13 4 0 2 -9 -4 -21 -7 -11 -14 -32 -16 -46 -3
-14 -18 -55 -35 -90 -17 -36 -28 -67 -25 -70 3 -3 -1 -18 -9 -32 -22 -38 -58
-123 -62 -146 -2 -11 -8 -21 -13 -23 -6 -2 -10 -10 -10 -18 0 -8 -4 -22 -9
-32 -5 -9 -14 -30 -21 -47 -7 -16 -18 -43 -25 -60 -7 -16 -30 -66 -51 -110
-21 -44 -38 -82 -38 -85 -3 -20 -86 -172 -101 -182 -5 -4 -7 -8 -3 -8 4 0 -1
-15 -12 -32 -11 -18 -25 -44 -32 -58 -7 -14 -32 -53 -55 -87 -24 -35 -43 -70
-43 -79 0 -8 -4 -13 -9 -10 -7 5 -25 -22 -21 -32 0 -2 -13 -16 -31 -33 -17
-16 -28 -29 -25 -29 4 0 -4 -12 -18 -27 -33 -35 -40 -26 -20 22 9 22 17 46 19
54 2 9 15 57 30 106 28 96 42 162 50 235 3 25 11 70 18 100 8 37 11 161 11
385 -1 289 -5 374 -28 535 -3 19 -7 58 -10 85 -6 59 -21 170 -36 275 -11 73
-18 127 -26 200 -10 88 -12 505 -3 595 6 55 21 145 35 200 13 55 24 107 24
115 1 8 9 33 20 55 11 22 19 44 20 48 0 5 6 23 14 40 22 51 29 71 27 80 -1 5
3 6 8 3 5 -4 13 4 16 16 4 13 15 31 24 42 9 10 15 21 15 25 -1 3 7 15 16 26
10 11 38 43 62 70 23 28 51 57 61 65 10 8 30 25 45 37 32 27 126 73 148 73 8
0 13 4 10 8 -3 5 11 9 31 10 20 1 38 4 41 7 9 9 71 6 118 -6z"/>
</g>
</svg>
